<svg width="112" height="107" viewBox="0 0 112 107" fill="none" xmlns="http://www.w3.org/2000/svg">
<path fill-rule="evenodd" clip-rule="evenodd" d="M53.5331 67.1455L75.3661 65.7747L77.0111 65.6836L77.194 67.3286L77.4679 71.7136L77.559 73.3586L75.8241 73.4497L53.9901 74.8196L52.255 74.9116L52.1639 73.2666L51.89 68.8826L51.799 67.2375L53.5331 67.1455Z" fill="#B0BBD1"/>
<path fill-rule="evenodd" clip-rule="evenodd" d="M49.239 50.2456L42.387 71.0747L41.8391 72.6277L40.2859 72.1707L36.175 70.8005L34.53 70.2527L35.0781 68.6997L41.9299 47.8706L42.387 46.2266L44.032 46.7747L48.1431 48.1445L49.696 48.6926L49.239 50.2456Z" fill="#B0BBD1"/>
<path fill-rule="evenodd" clip-rule="evenodd" d="M67.1461 52.9846L50.7931 38.4597L49.514 37.3596L50.702 36.0806L53.5341 32.8806L54.6342 31.6016L55.913 32.7017L72.265 47.2266L73.5441 48.4146L72.444 49.6028L69.5211 52.8916L68.421 54.1707L67.1461 52.9846Z" fill="#B0BBD1"/>
<path fill-rule="evenodd" clip-rule="evenodd" d="M1.53673e-05 69.9771C-0.00582995 76.3488 1.65598 82.6111 4.82033 88.1416C7.98468 93.6721 12.5413 98.2782 18.0374 101.502C23.5334 104.726 29.7775 106.455 36.1489 106.518C42.5204 106.581 48.7974 104.975 54.356 101.86C54.9237 101.56 55.4727 101.226 56 100.86C59.4882 98.6206 62.602 95.8459 65.2271 92.6379C65.5303 92.16 65.8643 91.7024 66.2271 91.2679L69.427 85.421L70.3411 83.776C70.995 82.2405 71.5146 80.6512 71.8941 79.026C71.9851 78.661 72.077 78.295 72.168 78.021L59.835 78.752C59.744 78.843 59.7441 79.0259 59.6521 79.1169C58.3034 82.5263 56.2182 85.5958 53.5459 88.1061C50.8736 90.6164 47.6799 92.5056 44.1929 93.6387C40.7059 94.7718 37.0118 95.1208 33.3743 94.6609C29.7368 94.201 26.2459 92.9434 23.1507 90.978C20.0554 89.0127 17.4324 86.3881 15.469 83.2916C13.5056 80.1952 12.2501 76.7033 11.7925 73.0656C11.3349 69.4278 11.6863 65.7338 12.8215 62.2476C13.9568 58.7613 15.8482 55.5687 18.3601 52.8979C16.666 51.3485 15.4482 49.3486 14.8496 47.1322C14.251 44.9158 14.2962 42.5747 14.98 40.3831C10.3383 43.7966 6.56406 48.2535 3.96193 53.3942C1.3598 58.5348 0.00267549 64.2153 1.53673e-05 69.9771ZM59.4719 102.777C64.4494 105.207 69.92 106.457 75.459 106.431C83.501 106.436 91.3197 103.786 97.7017 98.8933C104.084 94.0002 108.672 87.1372 110.755 79.3695C112.837 71.6019 112.297 63.364 109.219 55.9346C106.141 48.5051 100.696 42.2995 93.73 38.281C93.2017 37.9416 92.6522 37.6363 92.085 37.3669C83.8961 33.316 74.5155 32.3748 65.6851 34.718C65.2177 34.7969 64.7587 34.9191 64.314 35.083L75.46 45.041C88.25 45.132 100.309 54.907 100.309 69.889C100.315 73.1582 99.6772 76.3967 98.4317 79.4193C97.1861 82.442 95.3573 85.1897 93.0498 87.5056C90.7424 89.8215 88.0015 91.6602 84.9834 92.9167C81.9653 94.1733 78.7292 94.8231 75.46 94.829C73.7398 94.8324 72.0244 94.6487 70.344 94.281C69.6727 96.67 68.2559 98.7822 66.3003 100.31C64.3447 101.837 61.9524 102.7 59.4719 102.773V102.777ZM55.543 0C46.1644 0.00410514 37.1453 3.6075 30.3457 10.0669C23.5462 16.5263 19.485 25.3489 19 34.715V37.821C19.2842 42.8702 20.5691 47.8124 22.7803 52.3605C24.9914 56.9086 28.0845 60.9718 31.8799 64.314L35.991 51.981C35.808 51.798 35.7169 51.616 35.534 51.433C32.3502 47.119 30.6225 41.9035 30.6011 36.542C30.6011 35.628 30.692 34.715 30.784 33.801L30.875 33.0699C31.6621 27.5773 34.2606 22.5047 38.2583 18.6567C42.256 14.8087 47.4242 12.4057 52.9429 11.8287C58.4616 11.2517 64.0147 12.5338 68.7219 15.4717C73.4291 18.4095 77.0208 22.835 78.927 28.046C79.9111 27.7897 80.9251 27.6669 81.9419 27.681C83.9116 27.6666 85.8538 28.1436 87.5925 29.0691C89.3313 29.9945 90.8118 31.3391 91.8999 32.981C90.9911 23.9608 86.7718 15.5974 80.0571 9.50623C73.3425 3.41504 64.6088 0.0282767 55.543 0Z" fill="#430280"/>
</svg>
