<svg width="30" height="30" viewBox="0 0 30 30" fill="none" xmlns="http://www.w3.org/2000/svg">
<path fill-rule="evenodd" clip-rule="evenodd" d="M8.46252 3.85341C12.8075 3.37178 17.1925 3.37178 21.5375 3.85341C23.9113 4.11841 25.825 5.98716 26.1038 8.36966C26.619 12.7755 26.619 17.2263 26.1038 21.6322C25.825 24.0147 23.9113 25.8834 21.5388 26.1497C17.1933 26.6314 12.808 26.6314 8.46252 26.1497C6.08877 25.8834 4.17502 24.0147 3.89627 21.6334C3.38093 17.2272 3.38093 12.7759 3.89627 8.36966C4.17502 5.98716 6.08877 4.11841 8.46252 3.85341ZM20.5125 11.2259L21.5625 10.2222V10.0009H17.935L15.3488 16.4509L12.4088 10.0009H8.60377V10.2222L9.82877 11.6972C9.88828 11.7505 9.93435 11.8171 9.96324 11.8916C9.99213 11.9661 10.003 12.0464 9.99502 12.1259V17.9272C10.0125 18.0302 10.0056 18.1359 9.97474 18.2358C9.94391 18.3357 9.89006 18.4269 9.81752 18.5022L8.43752 20.1772V20.3959H12.3463V20.1759L10.9675 18.5034C10.8943 18.4283 10.8391 18.3374 10.8062 18.2378C10.7733 18.1382 10.7635 18.0324 10.7775 17.9284V12.9109L14.2088 20.3972H14.6088L17.555 12.9109V18.8772C17.555 19.0359 17.555 19.0659 17.45 19.1709L16.39 20.1997V20.4197H21.5363V20.1997L20.5138 19.1947C20.4693 19.161 20.4349 19.1159 20.4142 19.0641C20.3934 19.0124 20.3873 18.9559 20.3963 18.9009V11.5197C20.3873 11.4646 20.3934 11.4082 20.4142 11.3564C20.4349 11.3047 20.4681 11.2595 20.5125 11.2259Z" fill="#565454"/>
</svg>
