<svg width="15" height="14" viewBox="0 0 15 14" fill="none" xmlns="http://www.w3.org/2000/svg">
<path d="M7.72004 3.40592C5.83997 3.40592 4.31412 4.93177 4.31412 6.81183C4.31412 8.6919 5.83997 10.2178 7.72004 10.2178C9.6001 10.2178 11.126 8.6919 11.126 6.81183C11.126 4.93177 9.6001 3.40592 7.72004 3.40592ZM7.72004 0C3.95991 0 0.908203 3.0517 0.908203 6.81183C0.908203 10.572 3.9599 13.6237 7.72004 13.6237C11.4802 13.6237 14.5319 10.572 14.5319 6.81183C14.5319 3.0517 11.4802 0 7.72004 0ZM7.72004 12.2613C4.70921 12.2613 2.27057 9.82267 2.27057 6.81183C2.27057 3.801 4.70921 1.36237 7.72004 1.36237C10.7309 1.36237 13.1695 3.801 13.1695 6.81183C13.1695 9.82267 10.7309 12.2613 7.72004 12.2613Z" fill="black"/>
</svg>
