<svg width="89" height="60" viewBox="0 0 89 60" fill="none" xmlns="http://www.w3.org/2000/svg">
<path d="M84.4583 0.649902H13.7517C11.7318 0.649902 10.0944 2.28728 10.0944 4.30714V5.52622H3.99904C1.97917 5.52622 0.341797 7.1636 0.341797 9.18346V50.6322C0.341797 55.3452 4.16239 59.1657 8.87536 59.1657H80.8011C84.8408 59.1657 88.1156 55.891 88.1156 51.8513V4.30714C88.1156 2.28728 86.4782 0.649902 84.4583 0.649902ZM8.87536 51.8513C8.20208 51.8513 7.65628 51.3055 7.65628 50.6322V12.8407H10.0944V50.6322C10.0944 51.3055 9.54864 51.8513 8.87536 51.8513ZM44.8382 49.4131H21.6757C20.6658 49.4131 19.8471 48.5943 19.8471 47.5845V46.3654C19.8471 45.3555 20.6658 44.5368 21.6757 44.5368H44.8382C45.8481 44.5368 46.6668 45.3555 46.6668 46.3654V47.5845C46.6668 48.5943 45.8481 49.4131 44.8382 49.4131ZM76.5343 49.4131H53.3718C52.3619 49.4131 51.5432 48.5943 51.5432 47.5845V46.3654C51.5432 45.3555 52.3619 44.5368 53.3718 44.5368H76.5343C77.5442 44.5368 78.3629 45.3555 78.3629 46.3654V47.5845C78.3629 48.5943 77.5442 49.4131 76.5343 49.4131ZM44.8382 34.7841H21.6757C20.6658 34.7841 19.8471 33.9654 19.8471 32.9555V31.7364C19.8471 30.7266 20.6658 29.9078 21.6757 29.9078H44.8382C45.8481 29.9078 46.6668 30.7266 46.6668 31.7364V32.9555C46.6668 33.9654 45.8481 34.7841 44.8382 34.7841ZM76.5343 34.7841H53.3718C52.3619 34.7841 51.5432 33.9654 51.5432 32.9555V31.7364C51.5432 30.7266 52.3619 29.9078 53.3718 29.9078H76.5343C77.5442 29.9078 78.3629 30.7266 78.3629 31.7364V32.9555C78.3629 33.9654 77.5442 34.7841 76.5343 34.7841ZM76.5343 20.1552H21.6757C20.6658 20.1552 19.8471 19.3364 19.8471 18.3266V12.2312C19.8471 11.2213 20.6658 10.4025 21.6757 10.4025H76.5343C77.5442 10.4025 78.3629 11.2213 78.3629 12.2312V18.3266C78.3629 19.3364 77.5442 20.1552 76.5343 20.1552Z" fill="#D9D9D9"/>
</svg>
