<svg width="30" height="30" viewBox="0 0 30 30" fill="none" xmlns="http://www.w3.org/2000/svg">
<g filter="url(#filter0_d_1941_181)">
<path d="M22.9683 0H7.03076C3.14751 0 -0.000488281 3.148 -0.000488281 7.03125V22.9688C-0.000488281 26.852 3.14751 30 7.03076 30H22.9683C26.8515 30 29.9995 26.852 29.9995 22.9688V7.03125C29.9995 3.148 26.8515 0 22.9683 0Z" fill="#FEFEFE"/>
<path d="M22.9683 0H7.03076C3.14751 0 -0.000488281 3.148 -0.000488281 7.03125V22.9688C-0.000488281 26.852 3.14751 30 7.03076 30H22.9683C26.8515 30 29.9995 26.852 29.9995 22.9688V7.03125C29.9995 3.148 26.8515 0 22.9683 0Z" fill="#0A66C2"/>
<path d="M21.6458 25.51H25.0759C25.2002 25.51 25.3194 25.4606 25.4073 25.3727C25.4952 25.2848 25.5446 25.1656 25.5446 25.0413L25.5464 17.7942C25.5464 14.0064 24.7302 11.0948 20.3037 11.0948C18.621 11.0323 17.0341 11.8997 16.1778 13.3481C16.1736 13.3552 16.1673 13.3606 16.1597 13.3637C16.1521 13.3668 16.1437 13.3673 16.1358 13.3651C16.1279 13.363 16.1209 13.3583 16.1159 13.3519C16.1109 13.3454 16.1082 13.3374 16.1081 13.3293V11.9133C16.1081 11.789 16.0587 11.6697 15.9708 11.5818C15.8829 11.4939 15.7637 11.4445 15.6394 11.4445H12.3842C12.2599 11.4445 12.1407 11.4939 12.0528 11.5818C11.9649 11.6697 11.9155 11.789 11.9155 11.9133V25.0406C11.9155 25.1649 11.9649 25.2842 12.0528 25.3721C12.1407 25.46 12.2599 25.5094 12.3842 25.5094H15.8141C15.9384 25.5094 16.0576 25.46 16.1455 25.3721C16.2334 25.2842 16.2828 25.1649 16.2828 25.0406V18.5516C16.2828 16.7168 16.6309 14.9399 18.9056 14.9399C21.148 14.9399 21.1771 17.0394 21.1771 18.6704V25.0412C21.1771 25.1655 21.2264 25.2848 21.3143 25.3727C21.4023 25.4606 21.5215 25.51 21.6458 25.51ZM4.45264 6.98766C4.45264 8.37797 5.59721 9.52195 6.98764 9.52195C8.37772 9.52184 9.52158 8.37715 9.52158 6.98707C9.52135 5.59699 8.37736 4.45312 6.98717 4.45312C5.59662 4.45312 4.45264 5.59734 4.45264 6.98766ZM5.26814 25.51H8.70256C8.82688 25.51 8.94611 25.4606 9.03402 25.3727C9.12192 25.2848 9.17131 25.1655 9.17131 25.0412V11.9133C9.17131 11.789 9.12192 11.6697 9.03402 11.5818C8.94611 11.4939 8.82688 11.4445 8.70256 11.4445H5.26814C5.14382 11.4445 5.0246 11.4939 4.93669 11.5818C4.84878 11.6697 4.79939 11.789 4.79939 11.9133V25.0412C4.79939 25.1655 4.84878 25.2848 4.93669 25.3727C5.0246 25.4606 5.14382 25.51 5.26814 25.51Z" fill="#FEFEFE"/>
</g>
<defs>
<filter id="filter0_d_1941_181" x="-4.00049" y="0" width="38" height="38" filterUnits="userSpaceOnUse" color-interpolation-filters="sRGB">
<feFlood flood-opacity="0" result="BackgroundImageFix"/>
<feColorMatrix in="SourceAlpha" type="matrix" values="0 0 0 0 0 0 0 0 0 0 0 0 0 0 0 0 0 0 127 0" result="hardAlpha"/>
<feOffset dy="4"/>
<feGaussianBlur stdDeviation="2"/>
<feComposite in2="hardAlpha" operator="out"/>
<feColorMatrix type="matrix" values="0 0 0 0 0 0 0 0 0 0 0 0 0 0 0 0 0 0 0.25 0"/>
<feBlend mode="normal" in2="BackgroundImageFix" result="effect1_dropShadow_1941_181"/>
<feBlend mode="normal" in="SourceGraphic" in2="effect1_dropShadow_1941_181" result="shape"/>
</filter>
</defs>
</svg>
