<svg width="50" height="49" viewBox="0 0 50 49" fill="none" xmlns="http://www.w3.org/2000/svg">
<g filter="url(#filter0_d_2770_1592)">
<circle cx="24.75" cy="21.5" r="21.5" fill="white"/>
</g>
<path d="M30.9196 20.8479H25.0457V14.9739C25.0457 14.4383 24.6074 14 24.0718 14C23.5361 14 23.0979 14.4383 23.0979 14.9739V20.8479H17.2239C16.6883 20.8479 16.25 21.2861 16.25 21.8218C16.25 22.0896 16.3596 22.3331 16.5361 22.5096C16.7126 22.6861 16.9561 22.7957 17.2239 22.7957H23.0979V28.6696C23.0979 28.9375 23.2074 29.1809 23.3839 29.3575C23.5605 29.534 23.804 29.6436 24.0718 29.6436C24.6074 29.6436 25.0457 29.2053 25.0457 28.6696V22.7957H30.9196C31.4553 22.7957 31.8936 22.3574 31.8936 21.8218C31.8936 21.2861 31.4553 20.8479 30.9196 20.8479Z" fill="#707070"/>
<defs>
<filter id="filter0_d_2770_1592" x="0.25" y="0" width="49" height="49" filterUnits="userSpaceOnUse" color-interpolation-filters="sRGB">
<feFlood flood-opacity="0" result="BackgroundImageFix"/>
<feColorMatrix in="SourceAlpha" type="matrix" values="0 0 0 0 0 0 0 0 0 0 0 0 0 0 0 0 0 0 127 0" result="hardAlpha"/>
<feOffset dy="3"/>
<feGaussianBlur stdDeviation="1.5"/>
<feComposite in2="hardAlpha" operator="out"/>
<feColorMatrix type="matrix" values="0 0 0 0 0 0 0 0 0 0 0 0 0 0 0 0 0 0 0.160784 0"/>
<feBlend mode="normal" in2="BackgroundImageFix" result="effect1_dropShadow_2770_1592"/>
<feBlend mode="normal" in="SourceGraphic" in2="effect1_dropShadow_2770_1592" result="shape"/>
</filter>
</defs>
</svg>
