<svg width="24" height="25" viewBox="0 0 24 25" fill="none" xmlns="http://www.w3.org/2000/svg">
<path fill-rule="evenodd" clip-rule="evenodd" d="M11.8862 23.5615C18.2484 23.5615 23.4062 18.4036 23.4062 12.0415C23.4062 5.67934 18.2484 0.521484 11.8862 0.521484C5.52407 0.521484 0.366211 5.67934 0.366211 12.0415C0.366211 18.4036 5.52407 23.5615 11.8862 23.5615Z" fill="#430280"/>
<path fill-rule="evenodd" clip-rule="evenodd" d="M13.9717 17.0419C13.9717 17.0419 18.238 12.7856 18.2791 12.75C18.4796 12.5768 18.607 12.3239 18.607 12.0398C18.607 11.7437 18.468 11.4818 18.2528 11.3086C18.2065 11.2716 13.9717 7.03767 13.9717 7.03767C13.5989 6.66713 12.9941 6.66713 12.6218 7.03767C12.2491 7.40821 12.2491 8.00933 12.6218 8.37941L15.3493 11.0909H6.12641C5.59658 11.0909 5.16699 11.516 5.16699 12.0398C5.16699 12.564 5.59658 12.9886 6.12641 12.9886H15.3493L12.6218 15.7002C12.2491 16.0701 12.2491 16.6713 12.6218 17.0419C12.9941 17.4124 13.5989 17.4124 13.9717 17.0419Z" fill="white"/>
<path d="M13.9717 17.0419C13.9717 17.0419 18.238 12.7856 18.2791 12.75C18.4796 12.5768 18.607 12.3239 18.607 12.0398C18.607 11.7437 18.468 11.4818 18.2528 11.3086C18.2065 11.2716 13.9717 7.03767 13.9717 7.03767C13.5989 6.66713 12.9941 6.66713 12.6218 7.03767C12.2491 7.40821 12.2491 8.00933 12.6218 8.37941L15.3493 11.0909H6.12641C5.59658 11.0909 5.16699 11.516 5.16699 12.0398C5.16699 12.564 5.59658 12.9886 6.12641 12.9886H15.3493L12.6218 15.7002C12.2491 16.0701 12.2491 16.6713 12.6218 17.0419C12.9941 17.4124 13.5989 17.4124 13.9717 17.0419Z" stroke="#0898A0" stroke-width="0.96"/>
</svg>
