<svg width="106" height="106" viewBox="0 0 106 106" fill="none" xmlns="http://www.w3.org/2000/svg">
<circle cx="53" cy="53" r="53" fill="#A28CB6" fill-opacity="0.3"/>
<path d="M52.6789 60.1359V27.9609M52.6789 27.9609L60.1039 36.6234M52.6789 27.9609L45.2539 36.6234" stroke="#440080" stroke-width="3.7125" stroke-linecap="round" stroke-linejoin="round"/>
<path d="M42.7797 77.465H62.5797C69.579 77.465 73.0811 77.465 75.2542 75.2919C77.4297 73.1139 77.4297 69.6167 77.4297 62.615V60.14C77.4297 53.1407 77.4297 49.641 75.2542 47.4655C73.3534 45.5647 70.4378 45.3246 65.0547 45.2949M40.3047 45.2949C34.9216 45.3246 32.006 45.5647 30.1052 47.4655C27.9297 49.641 27.9297 53.1407 27.9297 60.14V62.615C27.9297 69.6167 27.9297 73.1164 30.1052 75.2919C30.8477 76.0344 31.7437 76.522 32.8797 76.8438" stroke="#440080" stroke-width="3.7125" stroke-linecap="round"/>
</svg>
