<svg width="17" height="17" viewBox="0 0 17 17" fill="none" xmlns="http://www.w3.org/2000/svg">
<path d="M6.4987 15.1673H10.4987C13.832 15.1673 15.1654 13.834 15.1654 10.5007V6.50065C15.1654 3.16732 13.832 1.83398 10.4987 1.83398H6.4987C3.16536 1.83398 1.83203 3.16732 1.83203 6.50065V10.5007C1.83203 13.834 3.16536 15.1673 6.4987 15.1673Z" stroke="#CB6125" stroke-width="1.5" stroke-linecap="round" stroke-linejoin="round"/>
<path opacity="0.4" d="M6.5013 7.16667C7.23768 7.16667 7.83464 6.56971 7.83464 5.83333C7.83464 5.09695 7.23768 4.5 6.5013 4.5C5.76492 4.5 5.16797 5.09695 5.16797 5.83333C5.16797 6.56971 5.76492 7.16667 6.5013 7.16667Z" stroke="#CB6125" stroke-width="1.5" stroke-linecap="round" stroke-linejoin="round"/>
<path opacity="0.4" d="M2.28125 13.133L5.56792 10.9264C6.09458 10.573 6.85458 10.613 7.32792 11.0197L7.54792 11.213C8.06792 11.6597 8.90792 11.6597 9.42792 11.213L12.2012 8.83305C12.7212 8.38638 13.5613 8.38638 14.0813 8.83305L15.1679 9.76638" stroke="#CB6125" stroke-width="1.5" stroke-linecap="round" stroke-linejoin="round"/>
</svg>
