<svg width="48" height="48" viewBox="0 0 48 48" fill="none" xmlns="http://www.w3.org/2000/svg">
<rect width="48" height="48" rx="24" fill="#72889D" fill-opacity="0.1"/>
<path d="M32.6386 33.4186H31.8295V14.9709C31.8295 14.4347 31.3948 14 30.8585 14H17.2655C16.7293 14 16.2946 14.4347 16.2946 14.9709V33.4186H15.4855C15.2174 33.4186 15 33.636 15 33.9041V34.7132H33.124V33.9041C33.124 33.636 32.9067 33.4186 32.6386 33.4186ZM20.1783 17.0746C20.1783 16.8065 20.3957 16.5891 20.6638 16.5891H22.282C22.5501 16.5891 22.7674 16.8065 22.7674 17.0746V18.6928C22.7674 18.9609 22.5501 19.1783 22.282 19.1783H20.6638C20.3957 19.1783 20.1783 18.9609 20.1783 18.6928V17.0746ZM20.1783 20.9583C20.1783 20.6902 20.3957 20.4729 20.6638 20.4729H22.282C22.5501 20.4729 22.7674 20.6902 22.7674 20.9583V22.5765C22.7674 22.8446 22.5501 23.062 22.282 23.062H20.6638C20.3957 23.062 20.1783 22.8446 20.1783 22.5765V20.9583ZM22.282 26.9457H20.6638C20.3957 26.9457 20.1783 26.7284 20.1783 26.4603V24.842C20.1783 24.574 20.3957 24.3566 20.6638 24.3566H22.282C22.5501 24.3566 22.7674 24.574 22.7674 24.842V26.4603C22.7674 26.7284 22.5501 26.9457 22.282 26.9457ZM25.3566 33.4186H22.7674V30.0203C22.7674 29.7522 22.9848 29.5349 23.2529 29.5349H24.8711C25.1392 29.5349 25.3566 29.7522 25.3566 30.0203V33.4186ZM27.9457 26.4603C27.9457 26.7284 27.7284 26.9457 27.4603 26.9457H25.842C25.574 26.9457 25.3566 26.7284 25.3566 26.4603V24.842C25.3566 24.574 25.574 24.3566 25.842 24.3566H27.4603C27.7284 24.3566 27.9457 24.574 27.9457 24.842V26.4603ZM27.9457 22.5765C27.9457 22.8446 27.7284 23.062 27.4603 23.062H25.842C25.574 23.062 25.3566 22.8446 25.3566 22.5765V20.9583C25.3566 20.6902 25.574 20.4729 25.842 20.4729H27.4603C27.7284 20.4729 27.9457 20.6902 27.9457 20.9583V22.5765ZM27.9457 18.6928C27.9457 18.9609 27.7284 19.1783 27.4603 19.1783H25.842C25.574 19.1783 25.3566 18.9609 25.3566 18.6928V17.0746C25.3566 16.8065 25.574 16.5891 25.842 16.5891H27.4603C27.7284 16.5891 27.9457 16.8065 27.9457 17.0746V18.6928Z" fill="#707070"/>
</svg>
