<svg width="26" height="26" viewBox="0 0 26 26" fill="none" xmlns="http://www.w3.org/2000/svg">
<circle cx="13" cy="13" r="12.25" fill="white" stroke="#302B2B" stroke-width="1.5"/>
<path d="M5.63672 22.5956C5.92041 22.4755 6.1665 22.386 6.34326 22.3237C7.26709 21.9982 8.58301 21.9207 9.43164 21.7306C9.91699 21.6241 10.6226 21.3578 10.8604 21.0732C11.0669 20.8298 10.9849 18.7959 10.9609 18.2742C10.9609 18.192 10.9365 18.1144 10.895 18.049C10.7705 17.842 10.4692 17.3263 10.2852 16.8639C10.1069 16.4136 9.91699 15.3821 9.83496 14.8893C9.81055 14.7477 9.72266 14.6292 9.59766 14.5576C9.44385 14.4694 9.23535 14.261 9.13525 13.7634C8.95117 12.8323 8.66016 12.4703 8.69678 11.7781C8.70752 11.4692 8.79736 11.3035 8.88574 11.2136C8.99805 11.1011 9.04053 10.9353 9.00391 10.7755C8.89795 10.3253 8.73145 9.4353 8.70166 8.07227C8.64795 5.63501 10.5103 3.23438 14.0142 3.23438C17.4644 3.23438 19.3735 5.63501 19.3203 8.07227C19.29 9.4353 19.124 10.3253 19.0112 10.7755C18.9702 10.9292 19.0112 11.1011 19.1304 11.2136C19.2188 11.3035 19.3022 11.4692 19.3203 11.7781C19.355 12.4703 19.0645 12.8323 18.8804 13.7634C18.7798 14.267 18.5732 14.4694 18.418 14.5576C18.2935 14.623 18.2051 14.7477 18.1807 14.8893C18.0986 15.3821 17.9082 16.4136 17.7305 16.8639C17.5464 17.3263 17.2515 17.8359 17.1206 18.049C17.084 18.1205 17.061 18.1981 17.0552 18.2742C17.0308 18.7959 16.9487 20.8237 17.1558 21.0732C17.3926 21.3578 18.0986 21.6241 18.584 21.7306C19.4326 21.9207 20.749 21.9982 21.6733 22.3237C21.8481 22.3853 22.0903 22.4734 22.3691 22.5912C20.1313 24.545 17.2041 25.7285 14 25.7285C10.7988 25.7285 7.87354 24.5466 5.63672 22.5956Z" fill="#302B2B"/>
</svg>
