<svg width="20" height="16" viewBox="0 0 20 16" fill="none" xmlns="http://www.w3.org/2000/svg">
<path d="M19.1875 13.5072H0.8125C0.709375 13.5072 0.625 13.5916 0.625 13.6947V15.0072C0.625 15.1103 0.709375 15.1947 0.8125 15.1947H19.1875C19.2906 15.1947 19.375 15.1103 19.375 15.0072V13.6947C19.375 13.5916 19.2906 13.5072 19.1875 13.5072ZM1.88359 10.5728L2.81406 11.4986C2.88672 11.5713 3.00625 11.5713 3.07891 11.4986L8.57969 6.01658L10.8672 8.29705C11.0081 8.43668 11.1985 8.51502 11.3969 8.51502C11.5953 8.51502 11.7856 8.43668 11.9266 8.29705L18.1188 2.1283C18.1914 2.05564 18.1914 1.93611 18.1188 1.86345L17.1883 0.935328C17.153 0.900434 17.1055 0.880859 17.0559 0.880859C17.0063 0.880859 16.9587 0.900434 16.9234 0.935328L11.3992 6.44314L9.10938 4.16267C8.96844 4.02304 8.77808 3.9447 8.57969 3.9447C8.3813 3.9447 8.19093 4.02304 8.05 4.16267L1.88359 10.308C1.86606 10.3253 1.85214 10.3459 1.84264 10.3686C1.83314 10.3914 1.82825 10.4158 1.82825 10.4404C1.82825 10.465 1.83314 10.4894 1.84264 10.5122C1.85214 10.5349 1.86606 10.5555 1.88359 10.5728Z" fill="#565454"/>
</svg>
