<svg width="21" height="20" viewBox="0 0 21 20" fill="none" xmlns="http://www.w3.org/2000/svg">
<path d="M7.99662 13.8579V6.14213C7.99662 5.0793 8.85594 4.21094 9.92782 4.21094H18.8375V3.2476C18.8375 2.18477 17.9828 1.31641 16.9244 1.31641H2.98999C1.91811 1.31641 1 2.15311 1 3.21594V16.7841C1 17.8469 1.91811 18.6836 2.98999 18.6836H16.9199C17.9828 18.6836 18.833 17.8152 18.833 16.7524V15.7891H9.9233C8.85594 15.7891 7.99662 14.9207 7.99662 13.8579Z" stroke="#302B2B" stroke-width="1.5"/>
<path d="M9.91016 6.83301V13.1648C9.91016 13.5628 10.2358 13.8884 10.6338 13.8884H19.0912C19.4892 13.8884 19.8149 13.5628 19.8149 13.1648V6.83301C19.8149 6.43501 19.4892 6.10938 19.0912 6.10938H10.6338C10.2358 6.10938 9.91016 6.43501 9.91016 6.83301ZM13.3972 11.4416C12.5243 11.4959 11.8052 10.7768 11.8594 9.90392C11.9047 9.18481 12.4881 8.60139 13.2117 8.55164C14.0846 8.49736 14.8037 9.21647 14.7495 10.0894C14.6997 10.813 14.1163 11.3964 13.3972 11.4416Z" stroke="#302B2B" stroke-width="1.5"/>
</svg>
