<svg width="47" height="47" viewBox="0 0 47 47" fill="none" xmlns="http://www.w3.org/2000/svg">
<circle cx="23.5" cy="23.5" r="23.5" fill="white"/>
<path fill-rule="evenodd" clip-rule="evenodd" d="M17.7701 14.0819C21.2461 13.6966 24.754 13.6966 28.2301 14.0819C30.1291 14.2939 31.6601 15.7889 31.8831 17.6949C32.2953 21.2196 32.2953 24.7803 31.8831 28.3049C31.6601 30.2109 30.1291 31.7059 28.2311 31.9189C24.7547 32.3043 21.2464 32.3043 17.7701 31.9189C15.8711 31.7059 14.3401 30.2109 14.1171 28.3059C13.7048 24.781 13.7048 21.2199 14.1171 17.6949C14.3401 15.7889 15.8711 14.2939 17.7701 14.0819ZM27.4101 19.9799L28.2501 19.1769V18.9999H25.3481L23.2791 24.1599L20.9271 18.9999H17.8831V19.1769L18.8631 20.3569C18.9107 20.3996 18.9475 20.4529 18.9706 20.5125C18.9938 20.5721 19.0025 20.6363 18.9961 20.6999V25.3409C19.0101 25.4234 19.0045 25.508 18.9798 25.5879C18.9552 25.6678 18.9121 25.7407 18.8541 25.8009L17.7501 27.1409V27.3159H20.8771V27.1399L19.7741 25.8019C19.7155 25.7418 19.6713 25.6692 19.645 25.5895C19.6187 25.5098 19.6108 25.4251 19.6221 25.3419V21.3279L22.3671 27.3169H22.6871L25.0441 21.3279V26.1009C25.0441 26.2279 25.0441 26.2519 24.9601 26.3359L24.1121 27.1589V27.3349H28.2291V27.1589L27.4111 26.3549C27.3755 26.328 27.3479 26.2919 27.3314 26.2505C27.3148 26.2091 27.3099 26.164 27.3171 26.1199V20.2149C27.3099 20.1709 27.3148 20.1258 27.3314 20.0844C27.3479 20.043 27.3745 20.0068 27.4101 19.9799Z" fill="#565454"/>
</svg>
